<svg width="272" height="104" viewBox="0 0 272 104" fill="none" xmlns="http://www.w3.org/2000/svg">
    <rect x="56" width="48" height="48" fill="#9ECC56"/>
    <path d="M71.098 41H63.1889L75.2401 6.09091H84.7514L96.7855 41H88.8764L80.1321 14.0682H79.8594L71.098 41ZM70.6037 27.2784H89.2855V33.0398H70.6037V27.2784Z" fill="black"/>
    <rect x="112" width="48" height="48" fill="#16DB93"/>
    <path d="M123.167 41V6.09091H137.144C139.712 6.09091 141.854 6.47159 143.57 7.23295C145.286 7.99432 146.576 9.05114 147.44 10.4034C148.303 11.7443 148.735 13.2898 148.735 15.0398C148.735 16.4034 148.462 17.6023 147.917 18.6364C147.371 19.6591 146.621 20.5 145.667 21.1591C144.724 21.8068 143.644 22.267 142.428 22.5398V22.8807C143.758 22.9375 145.002 23.3125 146.161 24.0057C147.332 24.6989 148.281 25.6705 149.008 26.9205C149.735 28.1591 150.099 29.6364 150.099 31.3523C150.099 33.2045 149.638 34.858 148.718 36.3125C147.809 37.7557 146.462 38.8977 144.678 39.7386C142.894 40.5795 140.695 41 138.082 41H123.167ZM130.548 34.9659H136.565C138.621 34.9659 140.121 34.5739 141.065 33.7898C142.008 32.9943 142.479 31.9375 142.479 30.6193C142.479 29.6534 142.246 28.8011 141.781 28.0625C141.315 27.3239 140.65 26.7443 139.786 26.3239C138.934 25.9034 137.917 25.6932 136.735 25.6932H130.548V34.9659ZM130.548 20.6989H136.019C137.031 20.6989 137.928 20.5227 138.712 20.1705C139.508 19.8068 140.133 19.2955 140.587 18.6364C141.053 17.9773 141.286 17.1875 141.286 16.267C141.286 15.0057 140.837 13.9886 139.94 13.2159C139.053 12.4432 137.792 12.0568 136.156 12.0568H130.548V20.6989Z" fill="black"/>
    <rect x="168" width="48" height="48" fill="#43D67F"/>
    <path d="M181.417 41V6.09091H188.798V34.9148H203.763V41H181.417Z" fill="black"/>
    <rect x="224" width="48" height="48" fill="#43D67F"/>
    <path d="M236.339 41V6.09091H259.862V12.1761H243.719V20.4943H258.651V26.5795H243.719V34.9148H259.93V41H236.339Z" fill="black"/>
    <rect x="56" y="56" width="48" height="48" fill="#16DB93"/>
    <path d="M86.245 72.1307C86.1087 70.7557 85.5234 69.6875 84.4893 68.9261C83.4553 68.1648 82.0518 67.7841 80.2791 67.7841C79.0746 67.7841 78.0575 67.9545 77.228 68.2955C76.3984 68.625 75.7621 69.0852 75.3189 69.6761C74.8871 70.267 74.6712 70.9375 74.6712 71.6875C74.6484 72.3125 74.7791 72.858 75.0632 73.3239C75.3587 73.7898 75.7621 74.1932 76.2734 74.5341C76.7848 74.8636 77.3757 75.1534 78.0462 75.4034C78.7166 75.642 79.4325 75.8466 80.1939 76.017L83.3303 76.767C84.853 77.108 86.2507 77.5625 87.5234 78.1307C88.7962 78.6989 89.8984 79.3977 90.8303 80.2273C91.7621 81.0568 92.4837 82.0341 92.995 83.1591C93.5178 84.2841 93.7848 85.5739 93.7962 87.0284C93.7848 89.1648 93.2393 91.017 92.1598 92.5852C91.0916 94.142 89.5462 95.3523 87.5234 96.2159C85.5121 97.0682 83.0859 97.4943 80.245 97.4943C77.4268 97.4943 74.9723 97.0625 72.8814 96.1989C70.8018 95.3352 69.1768 94.0568 68.0064 92.3636C66.8473 90.6591 66.2393 88.5511 66.1825 86.0398H73.3246C73.4041 87.2102 73.7393 88.1875 74.3303 88.9716C74.9325 89.7443 75.7337 90.3295 76.7337 90.7273C77.745 91.1136 78.8871 91.3068 80.1598 91.3068C81.4098 91.3068 82.495 91.125 83.4155 90.7614C84.3473 90.3977 85.0689 89.892 85.5803 89.2443C86.0916 88.5966 86.3473 87.8523 86.3473 87.0114C86.3473 86.2273 86.1143 85.5682 85.6484 85.0341C85.1939 84.5 84.5234 84.0455 83.6371 83.6705C82.7621 83.2955 81.6882 82.9545 80.4155 82.6477L76.6143 81.6932C73.6712 80.9773 71.3473 79.858 69.6428 78.3352C67.9382 76.8125 67.0916 74.7614 67.103 72.1818C67.0916 70.0682 67.6541 68.2216 68.7905 66.642C69.9382 65.0625 71.5121 63.8295 73.5121 62.9432C75.5121 62.0568 77.7848 61.6136 80.3303 61.6136C82.9212 61.6136 85.1825 62.0568 87.1143 62.9432C89.0575 63.8295 90.5689 65.0625 91.6484 66.642C92.728 68.2216 93.2848 70.0511 93.3189 72.1307H86.245Z" fill="black"/>
    <rect x="112" y="56" width="48" height="48" fill="#43D67F"/>
    <path d="M152.34 79.5455C152.34 83.3523 151.619 86.5909 150.175 89.2614C148.744 91.9318 146.789 93.9716 144.312 95.3807C141.846 96.7784 139.073 97.4773 135.994 97.4773C132.891 97.4773 130.107 96.7727 127.641 95.3636C125.175 93.9545 123.227 91.9148 121.795 89.2443C120.363 86.5739 119.647 83.3409 119.647 79.5455C119.647 75.7386 120.363 72.5 121.795 69.8295C123.227 67.1591 125.175 65.125 127.641 63.7273C130.107 62.3182 132.891 61.6136 135.994 61.6136C139.073 61.6136 141.846 62.3182 144.312 63.7273C146.789 65.125 148.744 67.1591 150.175 69.8295C151.619 72.5 152.34 75.7386 152.34 79.5455ZM144.857 79.5455C144.857 77.0795 144.488 75 143.749 73.3068C143.022 71.6136 141.994 70.3295 140.664 69.4545C139.335 68.5795 137.778 68.142 135.994 68.142C134.21 68.142 132.653 68.5795 131.323 69.4545C129.994 70.3295 128.96 71.6136 128.221 73.3068C127.494 75 127.13 77.0795 127.13 79.5455C127.13 82.0114 127.494 84.0909 128.221 85.7841C128.96 87.4773 129.994 88.7614 131.323 89.6364C132.653 90.5114 134.21 90.9489 135.994 90.9489C137.778 90.9489 139.335 90.5114 140.664 89.6364C141.994 88.7614 143.022 87.4773 143.749 85.7841C144.488 84.0909 144.857 82.0114 144.857 79.5455Z" fill="black"/>
    <rect x="168" y="56" width="48" height="48" fill="#9ECC56"/>
    <path d="M189.948 97H177.573V62.0909H190.05C193.562 62.0909 196.585 62.7898 199.119 64.1875C201.653 65.5739 203.602 67.5682 204.965 70.1705C206.34 72.7727 207.028 75.8864 207.028 79.5114C207.028 83.1477 206.34 86.2727 204.965 88.8864C203.602 91.5 201.641 93.5057 199.085 94.9034C196.539 96.3011 193.494 97 189.948 97ZM184.954 90.6761H189.641C191.823 90.6761 193.658 90.2898 195.147 89.517C196.647 88.733 197.772 87.5227 198.522 85.8864C199.283 84.2386 199.664 82.1136 199.664 79.5114C199.664 76.9318 199.283 74.8239 198.522 73.1875C197.772 71.5511 196.653 70.3466 195.164 69.5739C193.675 68.8011 191.84 68.4148 189.658 68.4148H184.954V90.6761Z" fill="black"/>
    <rect x="224" y="56" width="48" height="48" fill="#16DB93"/>
    <path d="M236.339 97V62.0909H259.862V68.1761H243.719V76.4943H258.651V82.5795H243.719V90.9148H259.93V97H236.339Z" fill="black"/>
    <rect width="48" height="48" fill="#16DB93"/>
    <path d="M9.6733 12.1761V6.09091H38.3438V12.1761H27.6562V41H20.3608V12.1761H9.6733Z" fill="black"/>
</svg>
